<svg width="24" height="24" viewBox="0 0 24 24" fill="none" xmlns="http://www.w3.org/2000/svg">
<path d="M16.3937 13.6948C17.2136 13.0786 17.876 12.2772 18.3267 11.3559C18.7774 10.4347 19.0036 9.41981 18.9868 8.39436C18.9701 7.36892 18.7108 6.362 18.2302 5.45598C17.7497 4.54995 17.0615 3.77055 16.2219 3.18153C15.3823 2.5925 14.4153 2.21059 13.3998 2.06701C12.3843 1.92344 11.3492 2.02229 10.3793 2.35548C9.40933 2.68866 8.53202 3.24673 7.81912 3.98401C7.10622 4.7213 6.57798 5.61688 6.27759 6.59748C5.17801 9.72629 5.49789 10.496 3.0988 12.6752C2.62075 13.0671 2.27549 13.5972 2.11029 14.1929C1.94509 14.7886 1.96801 15.4207 2.17593 16.0029C2.38384 16.5851 2.76659 17.0888 3.27177 17.445C3.77696 17.8013 4.37991 17.9927 4.99808 17.9931C8.99656 17.9931 13.3949 16.1938 16.3937 13.6948Z" stroke="#999999" stroke-width="1.99924" stroke-linecap="round" stroke-linejoin="round"/>
<path d="M18.4929 5.99771L20.6821 10.496C21.1011 11.7844 21.1057 13.1717 20.695 14.4628C20.2844 15.7538 19.4793 16.8837 18.393 17.6933C15.3941 20.1923 10.9958 21.9916 6.99732 21.9916C6.44079 21.9909 5.89544 21.8352 5.42231 21.5422C4.94918 21.2491 4.56693 20.8302 4.31835 20.3322L2.39908 16.4937" stroke="#999999" stroke-width="1.99924" stroke-linecap="round" stroke-linejoin="round"/>
<path d="M12.4952 10.9958C13.8754 10.9958 14.9943 9.87694 14.9943 8.49676C14.9943 7.11657 13.8754 5.99771 12.4952 5.99771C11.115 5.99771 9.99619 7.11657 9.99619 8.49676C9.99619 9.87694 11.115 10.9958 12.4952 10.9958Z" stroke="#999999" stroke-width="1.99924" stroke-linecap="round" stroke-linejoin="round"/>
</svg>
