<svg width="24" height="24" viewBox="0 0 24 24" fill="none" xmlns="http://www.w3.org/2000/svg">
<path d="M9.99619 1.99924V3.99924" stroke="#999999" stroke-width="1.99924" stroke-linecap="round" stroke-linejoin="round"/>
<path d="M13.9947 1.99924V3.99924" stroke="#999999" stroke-width="1.99924" stroke-linecap="round" stroke-linejoin="round"/>
<path d="M15.9939 7.99695C16.259 7.99695 16.5133 8.10227 16.7008 8.28973C16.8882 8.47719 16.9935 8.73145 16.9935 8.99657V16.9935C16.9935 18.054 16.5723 19.071 15.8224 19.8209C15.0725 20.5707 14.0555 20.992 12.9951 20.992H6.99735C5.93688 20.992 4.91986 20.5707 4.17 19.8209C3.42014 19.071 2.99887 18.054 2.99887 16.9935V8.99657C2.99887 8.73145 3.10419 8.47719 3.29165 8.28973C3.47912 8.10227 3.73337 7.99695 3.99849 7.99695H17.9932C19.0536 7.99695 20.0706 8.41821 20.8205 9.16807C21.5704 9.91793 21.9916 10.935 21.9916 11.9954C21.9916 13.0559 21.5704 14.0729 20.8205 14.8228C20.0706 15.5726 19.0536 15.9939 17.9932 15.9939H16.9935" stroke="#999999" stroke-width="1.99924" stroke-linecap="round" stroke-linejoin="round"/>
<path d="M5.99771 1.99924V3.99924" stroke="#999999" stroke-width="1.99924" stroke-linecap="round" stroke-linejoin="round"/>
</svg>
