<svg width="24" height="24" viewBox="0 0 24 24" fill="none" xmlns="http://www.w3.org/2000/svg">
<path d="M11.9954 20.992C14.3815 20.992 16.6698 20.0441 18.357 18.357C20.0442 16.6698 20.992 14.3815 20.992 11.9954H2.99887C2.99887 14.3815 3.94672 16.6698 5.6339 18.357C7.32109 20.0441 9.6094 20.992 11.9954 20.992Z" stroke="#999999" stroke-width="1.99924" stroke-linecap="round" stroke-linejoin="round"/>
<path d="M6.99734 20.992H16.9935" stroke="#999999" stroke-width="1.99924" stroke-linecap="round" stroke-linejoin="round"/>
<path d="M19.4926 11.9954L21.9916 5.99771" stroke="#999999" stroke-width="1.99924" stroke-linecap="round" stroke-linejoin="round"/>
<path d="M16.2438 2.99886C16.5137 3.09882 17.0435 3.52865 16.9935 4.35834C16.9335 5.18802 16.0639 5.55788 15.9939 6.37757C15.9439 7.15727 16.3338 7.61709 16.7236 7.99695" stroke="#999999" stroke-width="1.99924" stroke-linecap="round" stroke-linejoin="round"/>
<path d="M11.2457 2.99886C11.5156 3.09882 12.0454 3.52865 11.9854 4.35834C11.9354 5.18802 11.0558 5.55788 11.0058 6.37757C10.9458 7.15727 11.3357 7.61709 11.7255 7.99695" stroke="#999999" stroke-width="1.99924" stroke-linecap="round" stroke-linejoin="round"/>
<path d="M6.24762 2.99886C6.51752 3.09882 7.04732 3.52865 6.99734 4.35834C6.93736 5.18802 6.06769 5.55788 5.99772 6.37757C5.94774 7.15727 6.33759 7.61709 6.73744 7.99695" stroke="#999999" stroke-width="1.99924" stroke-linecap="round" stroke-linejoin="round"/>
</svg>
