<svg width="24" height="24" viewBox="0 0 24 24" fill="none" xmlns="http://www.w3.org/2000/svg">
<path d="M19.9924 20.992V12.995C19.9924 12.4648 19.7817 11.9563 19.4068 11.5814C19.0319 11.2064 18.5234 10.9958 17.9931 10.9958H5.99771C5.46748 10.9958 4.95897 11.2064 4.58404 11.5814C4.20911 11.9563 3.99847 12.4648 3.99847 12.995V20.992" stroke="#999999" stroke-width="1.99924" stroke-linecap="round" stroke-linejoin="round"/>
<path d="M3.99847 13.9947H19.9924M11.9954 10.9958V6.99733M11.9954 2.99886V3.99847" stroke="#999999" stroke-width="1.99924" stroke-linecap="round" stroke-linejoin="round"/>
<path d="M9.99622 13.9947C10.496 14.9943 11.4956 14.9943 11.9955 14.9943C12.4953 14.9943 13.4949 14.9943 13.9947 13.9947" stroke="#999999" stroke-width="1.99924" stroke-linecap="round" stroke-linejoin="round"/>
<path d="M18.9928 16.9935H4.99809C4.44602 16.9935 3.99847 17.4411 3.99847 17.9931V19.9924C3.99847 20.5445 4.44602 20.992 4.99809 20.992H18.9928C19.5448 20.992 19.9924 20.5445 19.9924 19.9924V17.9931C19.9924 17.4411 19.5448 16.9935 18.9928 16.9935Z" stroke="#999999" stroke-width="1.99924" stroke-linecap="round" stroke-linejoin="round"/>
</svg>
