<svg width="24" height="24" viewBox="0 0 24 24" fill="none" xmlns="http://www.w3.org/2000/svg">
<path d="M11.9955 21.9916C17.5163 21.9916 21.9916 17.5163 21.9916 11.9954C21.9916 6.47453 17.5163 1.99924 11.9955 1.99924C6.47456 1.99924 1.99927 6.47453 1.99927 11.9954C1.99927 17.5163 6.47456 21.9916 11.9955 21.9916Z" stroke="#999999" stroke-opacity="0.2" stroke-width="1.99924" stroke-linecap="round" stroke-linejoin="round"/>
<path d="M11.9954 21.9916C16.4937 21.9916 19.9924 18.4929 19.9924 13.9947V8.99657C19.9924 6.99733 18.4929 5.99771 16.4937 5.99771C14.4945 5.99771 12.995 7.99695 11.9954 7.99695C10.9958 7.99695 9.49638 5.99771 7.49714 5.99771C5.4979 5.99771 3.99847 6.99733 3.99847 8.99657V13.9947C3.99847 18.4929 7.49714 21.9916 11.9954 21.9916Z" stroke="#999999" stroke-width="1.99924" stroke-linecap="round" stroke-linejoin="round"/>
<path d="M11.9954 7.99695V10.9958M8.99658 8.99657L9.9962 10.9958M14.9943 8.99657L13.9947 10.9958" stroke="#999999" stroke-width="1.99924" stroke-linecap="round" stroke-linejoin="round"/>
</svg>
