<svg width="24" height="24" viewBox="0 0 24 24" fill="none" xmlns="http://www.w3.org/2000/svg">
<path d="M11.9958 13.9947L10.9958 14.9947" stroke="#999999" stroke-width="1.99924" stroke-linecap="round" stroke-linejoin="round"/>
<path d="M13.7452 18.243L12.4952 19.663" stroke="#999999" stroke-width="1.99924" stroke-linecap="round" stroke-linejoin="round"/>
<path d="M17.7682 5.65185C14.7907 6.27739 12.0595 7.75603 9.90801 9.90736C7.7565 12.0587 6.27764 14.7897 5.65186 17.7672" stroke="#999999" stroke-width="1.99924" stroke-linecap="round" stroke-linejoin="round"/>
<path d="M18.7928 9.29646C17.7721 9.57483 16.9038 10.2473 16.3789 11.1658C15.854 12.0844 15.7155 13.1739 15.9939 14.1946C16.2723 15.2153 16.9447 16.0836 17.8633 16.6085C18.7819 17.1334 19.8713 17.2719 20.892 16.9935" stroke="#999999" stroke-width="1.99924" stroke-linecap="round" stroke-linejoin="round"/>
<path d="M21.9556 20.7241C22.0032 20.8948 22.0046 21.0751 21.9597 21.2465C21.9147 21.4179 21.8249 21.5743 21.6996 21.6996C21.5743 21.825 21.4179 21.9147 21.2465 21.9597C21.0751 22.0047 20.8948 22.0033 20.7241 21.9556L2.73093 16.9575C2.60444 16.9223 2.48612 16.8625 2.38274 16.7815C2.27936 16.7006 2.19295 16.6001 2.12843 16.4857C2.06391 16.3713 2.02256 16.2454 2.00674 16.115C1.99091 15.9847 2.00092 15.8525 2.0362 15.726C2.9441 12.4575 4.68178 9.47922 7.08049 7.08051C9.4792 4.6818 12.4574 2.94412 15.726 2.03622C15.8525 2.00095 15.9846 1.99093 16.115 2.00676C16.2453 2.02259 16.3713 2.06394 16.4857 2.12845C16.6 2.19297 16.7006 2.27939 16.7815 2.38276C16.8625 2.48614 16.9223 2.60446 16.9575 2.73096L21.9556 20.7241Z" stroke="#999999" stroke-width="1.99924" stroke-linecap="round" stroke-linejoin="round"/>
</svg>
