<svg width="24" height="24" viewBox="0 0 24 24" fill="none" xmlns="http://www.w3.org/2000/svg">
<path d="M6.49753 11.9954C7.43717 8.53674 11.4356 5.99771 14.9943 5.99771C18.5529 5.99771 21.052 8.53674 21.9916 11.9954C21.052 15.4641 18.5529 17.9931 14.9943 17.9931C11.4356 17.9931 7.43717 15.4641 6.49753 11.9954Z" stroke="#999999" stroke-width="1.99924" stroke-linecap="round" stroke-linejoin="round"/>
<path d="M17.9931 11.9954V12.4954" stroke="#999999" stroke-width="1.99924" stroke-linecap="round" stroke-linejoin="round"/>
<path d="M15.9939 17.9232C14.6936 16.2206 13.9892 14.1377 13.9892 11.9954C13.9892 9.85312 14.6936 7.77025 15.9939 6.06769" stroke="#999999" stroke-width="1.99924" stroke-linecap="round" stroke-linejoin="round"/>
<path d="M6.99733 10.6659C6.99733 7.99695 5.57787 5.96772 2.72896 5.4979C1.72934 6.99733 1.72934 10.496 2.95887 11.9954C1.71934 13.4949 1.71934 16.9935 2.72896 18.4929C5.57787 18.0231 6.99733 15.9939 6.99733 13.3249" stroke="#999999" stroke-width="1.99924" stroke-linecap="round" stroke-linejoin="round"/>
<path d="M10.456 7.25723C10.1961 5.87776 9.1665 4.23838 7.99695 2.99885H13.7947C14.2691 2.9971 14.7285 3.16403 15.0911 3.46984C15.4537 3.77565 15.6957 4.2004 15.774 4.66822L16.0039 6.06768" stroke="#999999" stroke-width="1.99924" stroke-linecap="round" stroke-linejoin="round"/>
<path d="M16.0039 17.9232L15.774 19.3226C15.6957 19.7904 15.4537 20.2152 15.0911 20.521C14.7285 20.8268 14.2691 20.9938 13.7947 20.992H9.49638C10.4649 19.8939 10.9951 18.4776 10.9858 17.0135" stroke="#999999" stroke-width="1.99924" stroke-linecap="round" stroke-linejoin="round"/>
</svg>
